<svg id="Layer_1" data-name="Layer 1" xmlns="http://www.w3.org/2000/svg" xmlns:xlink="http://www.w3.org/1999/xlink" viewBox="0 0 397.25 496.29"><defs><style>.cls-1{fill:url(#linear-gradient);}.cls-2{fill:none;stroke:#7cd0de;stroke-miterlimit:10;stroke-width:2px;}.cls-3{fill:#7cd0de;}</style><linearGradient id="linear-gradient" y1="248.15" x2="397.25" y2="248.15" gradientUnits="userSpaceOnUse"><stop offset="0" stop-color="#3f62ad"/><stop offset="0.13" stop-color="#3e5da9"/><stop offset="0.29" stop-color="#394e9f"/><stop offset="0.47" stop-color="#33358f"/><stop offset="0.49" stop-color="#32338d"/></linearGradient></defs><polygon class="cls-1" points="0 273.45 111.96 423.09 197.01 496.29 282.06 423.09 397.25 273.45 359.57 191.63 388.64 116.81 388.64 0 282.06 104.43 120.04 104.43 13.99 0 13.99 121.65 39.83 191.63 0 273.45"/><path class="cls-2" d="M134.29,119.26" transform="translate(-51.09 -1.09)"/><polyline class="cls-2" points="56.73 161.68 28.74 128.84 28.74 38.95 85.8 111.62 26.05 272.02 102.48 364.07 200.99 445.89 296.26 358.15 372.16 273.1 312.41 112.69 372.16 43.26 372.16 126.69 344.71 158.45"/><polyline class="cls-2" points="82.66 107.62 132.63 168.14 167.08 254.8 161.16 319.93 199.11 356 240.28 321.55 235.98 248.97 263.43 172.44 312.41 112.69"/><polyline class="cls-2" points="196.19 106.23 227.9 167.06 167.08 254.8"/><line class="cls-2" x1="267.24" y1="167.74" x2="227.9" y2="167.06"/><polyline class="cls-2" points="161.16 319.93 103.24 361.59 115.94 319.93 62.65 262.54 32.83 280.19"/><line class="cls-2" x1="161.61" y1="319.75" x2="240.18" y2="319.75"/><polyline class="cls-2" points="199.11 355.01 199.11 376.68 152.05 405.24"/><line class="cls-2" x1="246.67" y1="403.82" x2="198.93" y2="375.89"/><polyline class="cls-2" points="295.53 358.83 285.59 322.58 349.91 267.81 370.91 273.32"/><polygon class="cls-3" points="61.34 203.21 64.81 204.29 132.4 225.28 150.16 254.8 105.75 246.81 89.33 218.29 61.34 203.21"/><polygon class="cls-3" points="335.48 203.21 332.02 204.29 264.43 225.28 246.67 254.8 291.08 246.81 307.49 218.29 335.48 203.21"/></svg>