<svg id="Layer_1" data-name="Layer 1" xmlns="http://www.w3.org/2000/svg" xmlns:xlink="http://www.w3.org/1999/xlink" viewBox="0 0 918.24 196.3"><defs><style>.cls-1{fill:url(#linear-gradient);}.cls-2{fill:url(#linear-gradient-2);}.cls-3{fill:url(#linear-gradient-3);}.cls-4{fill:url(#linear-gradient-4);}.cls-5{fill:url(#linear-gradient-5);}.cls-6{fill:url(#linear-gradient-6);}.cls-7{fill:url(#linear-gradient-7);}.cls-8{fill:none;stroke:#7cd0de;stroke-miterlimit:10;stroke-width:2px;}.cls-9{fill:#7cd0de;}</style><linearGradient id="linear-gradient" x1="234.89" y1="124.1" x2="335.69" y2="124.1" gradientUnits="userSpaceOnUse"><stop offset="0" stop-color="#3f62ad"/><stop offset="0.13" stop-color="#3e5da9"/><stop offset="0.29" stop-color="#394e9f"/><stop offset="0.47" stop-color="#33358f"/><stop offset="0.49" stop-color="#32338d"/></linearGradient><linearGradient id="linear-gradient-2" x1="365.79" y1="124.1" x2="466.59" y2="124.1" xlink:href="#linear-gradient"/><linearGradient id="linear-gradient-3" x1="497.53" y1="124.03" x2="598.33" y2="124.03" xlink:href="#linear-gradient"/><linearGradient id="linear-gradient-4" x1="593.57" y1="124.1" x2="705.29" y2="124.1" xlink:href="#linear-gradient"/><linearGradient id="linear-gradient-5" x1="727.27" y1="124.1" x2="828.07" y2="124.1" xlink:href="#linear-gradient"/><linearGradient id="linear-gradient-6" x1="857.75" y1="124.1" x2="958.55" y2="124.1" xlink:href="#linear-gradient"/><linearGradient id="linear-gradient-7" x1="0" y1="98.15" x2="157.12" y2="98.15" xlink:href="#linear-gradient"/></defs><g id="Solynx"><path class="cls-1" d="M335.69,100.86H317.07v-7.7a.94.94,0,0,0-.84-1H254.35a1,1,0,0,0-1,1v20.72a1,1,0,0,0,1,1h61.88a19.51,19.51,0,0,1,19.46,19.46V155a19.51,19.51,0,0,1-19.46,19.46H254.35A19.42,19.42,0,0,1,234.89,155v-7.7h18.48V155a1,1,0,0,0,1,1h61.88a.94.94,0,0,0,.84-1V134.32a.94.94,0,0,0-.84-1H254.35a19.42,19.42,0,0,1-19.46-19.46V93.16A19.42,19.42,0,0,1,254.35,73.7h61.88a19.51,19.51,0,0,1,19.46,19.46Z" transform="translate(-40.3 -15.61)"/><path class="cls-2" d="M447.13,73.7a19.51,19.51,0,0,1,19.46,19.46V155a19.51,19.51,0,0,1-19.46,19.46H385.25A19.42,19.42,0,0,1,365.79,155V93.16A19.42,19.42,0,0,1,385.25,73.7Zm0,82.32a.94.94,0,0,0,.84-1V93.16a.94.94,0,0,0-.84-1H385.25a1,1,0,0,0-1,1V155a1,1,0,0,0,1,1Z" transform="translate(-40.3 -15.61)"/><path class="cls-3" d="M497.53,73.56H516V156h82.32V174.5H497.53Z" transform="translate(-40.3 -15.61)"/><path class="cls-4" d="M705.29,73.7l-46.62,63.14V174.5H640.19V136.84c-14.7-20-32.06-43.12-46.62-63.14h22l33.88,42.84L683.17,73.7Z" transform="translate(-40.3 -15.61)"/><path class="cls-5" d="M809.45,73.7h18.62V174.5H807.91l-62.16-73.92V174.5H727.27V73.7h20.16l62,73.92Z" transform="translate(-40.3 -15.61)"/><path class="cls-6" d="M958.55,73.7v4.9l-38.36,45.5,38.36,45.5v4.9h-20.3l-30.1-35.7c-9.94,11.76-20.3,23.94-30.1,35.7h-20.3v-4.9L896,124.1,857.75,78.6V73.7h20.3l30.1,35.7c9.94-11.76,20.3-23.94,30.1-35.7Z" transform="translate(-40.3 -15.61)"/></g><polygon class="cls-7" points="0 108.16 44.28 167.34 77.92 196.3 111.56 167.34 157.12 108.16 142.22 75.79 153.72 46.2 153.72 0 111.56 41.3 47.48 41.3 5.54 0 5.54 48.12 15.76 75.79 0 108.16"/><path class="cls-8" d="M73.21,62.34" transform="translate(-40.3 -15.61)"/><polyline class="cls-8" points="22.44 63.95 11.37 50.96 11.37 15.41 33.94 44.15 10.3 107.59 40.54 144 79.5 176.36 117.18 141.66 147.2 108.02 123.57 44.57 147.2 17.11 147.2 50.11 136.34 62.67"/><polyline class="cls-8" points="32.69 42.57 52.46 66.5 66.08 100.78 63.74 126.54 78.75 140.81 95.04 127.18 93.34 98.47 104.19 68.21 123.57 44.57"/><polyline class="cls-8" points="77.6 42.02 90.14 66.08 66.08 100.78"/><line class="cls-8" x1="105.7" y1="66.34" x2="90.14" y2="66.08"/><polyline class="cls-8" points="63.74 126.54 40.84 143.02 45.86 126.54 24.78 103.84 12.98 110.82"/><line class="cls-8" x1="63.92" y1="126.47" x2="95" y2="126.47"/><polyline class="cls-8" points="78.75 140.42 78.75 148.99 60.14 160.28"/><line class="cls-8" x1="97.56" y1="159.72" x2="78.68" y2="148.67"/><polyline class="cls-8" points="116.89 141.93 112.96 127.59 138.4 105.93 146.7 108.11"/><polygon class="cls-9" points="24.26 80.38 25.63 80.8 52.37 89.11 59.39 100.78 41.83 97.62 35.33 86.34 24.26 80.38"/><polygon class="cls-9" points="132.69 80.38 131.32 80.8 104.59 89.11 97.56 100.78 115.13 97.62 121.62 86.34 132.69 80.38"/></svg>